<svg width="326" height="232" viewBox="0 0 326 232" fill="none" xmlns="http://www.w3.org/2000/svg">
<g clip-path="url(#clip0)">
<path d="M219.423 120.833C219.423 128.837 212.402 135.333 203.75 135.333C195.098 135.333 188.077 128.837 188.077 120.833C188.077 112.829 195.098 106.333 203.75 106.333C212.402 106.333 219.423 112.829 219.423 120.833ZM122.25 106.333C113.598 106.333 106.577 112.829 106.577 120.833C106.577 128.837 113.598 135.333 122.25 135.333C130.902 135.333 137.923 128.837 137.923 120.833C137.923 112.829 130.902 106.333 122.25 106.333ZM163 187.089C191.023 187.089 200.615 164.333 200.615 164.333H125.385C125.385 164.333 136.005 187.089 163 187.089ZM326 222.266C292.735 238.834 258.067 234.388 240.212 207.882C219.248 222.43 193.744 231.923 163 231.923C131.278 231.923 106.364 223.126 85.4622 208.288C67.5196 234.407 33.0765 238.738 0 222.266C54.8558 205.349 -34.2175 108.073 51.4578 34.974C80.0706 10.5657 120.068 0 163 0C205.932 0 245.929 10.5657 274.542 34.974C360.217 108.073 271.144 205.349 326 222.266ZM254.932 163.193C256.462 161.24 258.844 159.771 261.64 159.036C292.322 151.032 293.663 116.88 281.125 110.587C278.178 109.117 274.467 109.475 272.699 110.074C264.373 112.926 255.07 108.199 255.07 101.239C255.07 96.686 254.644 91.5627 253.866 87H127.215C117.021 77.1303 117.548 58.5317 122.25 42.8233C110.928 52.316 101.022 74.2303 98.7404 87H72.1463C71.3689 91.5627 70.9426 96.686 70.9426 101.239C70.9426 108.199 61.6391 112.926 53.3135 110.074C51.5456 109.475 47.8468 109.108 44.8877 110.587C32.3492 116.88 33.6908 151.032 64.3725 159.036C67.1811 159.771 69.5508 161.24 71.0805 163.193C92.5088 190.54 121.422 212.599 163.013 212.599C204.59 212.599 233.516 190.53 254.932 163.193V163.193Z" fill="url(#paint0_linear)"/>
</g>
<defs>
<linearGradient id="paint0_linear" x1="163" y1="0" x2="163" y2="232" gradientUnits="userSpaceOnUse">
<stop offset="0.046875" stop-color="#CB05B7"/>
<stop offset="0.9999" stop-color="#4E0446"/>
<stop offset="1" stop-color="#4E0446" stop-opacity="0"/>
</linearGradient>
<clipPath id="clip0">
<rect width="326" height="232" fill="white"/>
</clipPath>
</defs>
</svg>
