<svg width="1020" height="642" viewBox="0 0 1020 642" fill="none" xmlns="http://www.w3.org/2000/svg">
<g id="prog 1" clip-path="url(#clip0)" filter="url(#filter0_d)">
<path id="background" d="M980 262.5C734.167 132.5 370 77.5 50 282.5C92.5 306.667 180 340 0 565C6.66667 649.167 48.5 695 1046.5 627C1066.5 622 727.5 627 980 262.5Z" fill="url(#paint0_linear)"/>
<g id="monitorlegs">
<path id="Vector" d="M291.763 553.333V581.351C291.763 582.678 291.444 583.978 290.842 585.1C290.24 586.222 289.38 587.119 288.361 587.689C287.603 588.122 286.774 588.356 285.932 588.375L252.014 589.222C251.109 589.247 250.21 589.024 249.39 588.57C248.354 588.011 247.476 587.113 246.861 585.983C246.246 584.853 245.92 583.539 245.921 582.197V553.333H291.763Z" fill="#3F3D56"/>
<path id="Vector_2" opacity="0.1" d="M291.763 553.333V581.351C291.763 582.678 291.444 583.978 290.842 585.1C290.24 586.222 289.38 587.119 288.361 587.689C287.603 588.122 286.774 588.356 285.932 588.375L252.014 589.222C251.109 589.247 250.21 589.024 249.39 588.57C248.354 588.011 247.476 587.113 246.861 585.983C246.246 584.853 245.92 583.539 245.921 582.197V553.333H291.763Z" fill="black"/>
<path id="Vector_3" d="M293.707 553.333V581.351C293.707 582.678 293.388 583.978 292.786 585.1C292.184 586.222 291.323 587.119 290.305 587.689C289.547 588.122 288.718 588.356 287.876 588.375L253.958 589.222C253.052 589.247 252.154 589.024 251.334 588.57C250.298 588.011 249.42 587.113 248.805 585.983C248.19 584.853 247.863 583.539 247.865 582.197V553.333H293.707Z" fill="#3F3D56"/>
<path id="Vector_4" d="M711.59 553.321H665.748V589.359H711.59V553.321Z" fill="#3F3D56"/>
<path id="Vector_5" opacity="0.1" d="M711.59 553.321H665.748V589.359H711.59V553.321Z" fill="black"/>
<path id="Vector_6" d="M709.646 553.321H663.804V589.359H709.646V553.321Z" fill="#3F3D56"/>
</g>
<g id="leftmonitor">
<path id="Vector_7" opacity="0.1" d="M293.697 553.321V559.007L247.855 560.449V553.321H293.697Z" fill="black"/>
<path id="Vector_8" d="M374.613 357.356V549.786C374.601 550.961 374.206 552.085 373.509 552.926C372.813 553.768 371.868 554.261 370.871 554.305L184.617 560.14H184.569C183.554 560.125 182.585 559.644 181.868 558.8C181.151 557.956 180.742 556.815 180.73 555.621V357.356C180.742 356.163 181.151 355.022 181.868 354.177C182.585 353.333 183.554 352.852 184.569 352.837H370.774C371.788 352.852 372.757 353.333 373.474 354.177C374.191 355.022 374.6 356.163 374.613 357.356V357.356Z" fill="#65617D"/>
<path id="Vector_9" opacity="0.1" d="M184.617 352.837V560.14H184.569C183.554 560.125 182.585 559.644 181.868 558.8C181.151 557.956 180.742 556.815 180.73 555.621V357.356C180.742 356.163 181.151 355.022 181.868 354.177C182.585 353.333 183.554 352.852 184.569 352.837H184.617Z" fill="black"/>
<path id="Vector_10" d="M193.111 365.125H365.613V534.73L193.111 539.307V365.125Z" fill="#EBEAFF"/>
</g>
<g id="rightmonitor">
<path id="Vector_11" d="M770.153 357.356V555.621C770.14 556.825 769.725 557.974 768.997 558.82C768.27 559.666 767.288 560.14 766.265 560.14V560.14L579.973 554.305C578.976 554.261 578.031 553.768 577.334 552.926C576.638 552.085 576.243 550.961 576.231 549.786V357.356C576.244 356.163 576.652 355.022 577.369 354.177C578.087 353.333 579.056 352.852 580.07 352.837H766.275C767.296 352.84 768.275 353.316 769.001 354.162C769.726 355.007 770.14 356.155 770.153 357.356V357.356Z" fill="#65617D"/>
<path id="Vector_12" opacity="0.1" d="M770.153 357.356V555.621C770.14 556.825 769.725 557.974 768.997 558.82C768.27 559.666 767.288 560.14 766.265 560.14V560.14V352.837C767.288 352.837 768.27 353.312 768.997 354.158C769.725 355.003 770.14 356.153 770.153 357.356Z" fill="black"/>
<path id="Vector_13" d="M757.752 365.125H585.25V534.73L757.752 539.307V365.125Z" fill="#EBEAFF"/>
</g>
<g id="table">
<path id="Vector_14" d="M842.788 610.524V625.397L695.146 626.998L693.571 627.033L637.457 627.639L636.116 627.662L619.06 627.834H618.555L514.587 628.966L343.922 630.831H343.776L300.383 631.312L299.917 631.323L107.103 633.405V616.244L152.439 584.211L243.404 583.318L245.348 583.307L245.989 583.296L247.933 583.261L291.607 582.838L293.561 582.827L294.183 582.815L296.126 582.804L310.131 582.666L310.5 582.655L345.049 582.312H345.331L614.92 579.635L621.519 579.577H622.18L627.214 579.52L663.804 579.166L665.748 579.131L667.546 579.108H668.479L679.859 579.005L682.114 578.971L685.136 578.948L694.611 578.845L709.646 578.696L711.589 578.674L714.971 578.651H715.603L788.21 577.919L842.788 610.524Z" fill="#65617D"/>
<path id="Vector_15" opacity="0.2" d="M842.788 610.524V625.397L695.146 626.998L693.571 627.033L637.457 627.639L636.116 627.662L619.06 627.834H618.555L514.587 628.966L343.922 630.831H343.776L300.383 631.312L299.917 631.323L107.103 633.405V616.244L152.439 584.211L243.404 583.318L245.348 583.307L245.989 583.296L247.933 583.261L291.607 582.838L293.561 582.827L294.183 582.815L296.126 582.804L310.131 582.666L310.5 582.655L345.049 582.312H345.331L614.92 579.635L621.519 579.577H622.18L627.214 579.52L663.804 579.166L665.748 579.131L667.546 579.108H668.479L679.859 579.005L682.113 578.971L685.136 578.948L694.611 578.845L709.646 578.696L711.59 578.674L714.971 578.651H715.603L788.21 577.919L842.788 610.524Z" fill="black"/>
<path id="Vector_16" opacity="0.1" d="M842.788 610.524V625.397L695.146 626.998L693.571 627.033L637.457 627.639L636.116 627.662L619.06 627.834H618.555L514.587 628.966L343.922 630.831H343.776L300.383 631.312L299.917 631.323L107.103 633.405V616.244L303.911 614.723H304.377L344.213 614.402H344.398L619.507 612.263H619.789L619.954 612.252H620.411L625.066 612.217H626.485L698.878 611.645L703.154 611.622L704.106 611.611L842.788 610.524Z" fill="black"/>
</g>
<g id="midmonitor">
<path id="Vector_17" d="M571.411 357.356V549.786C571.399 550.961 571.004 552.085 570.307 552.926C569.611 553.768 568.666 554.261 567.669 554.305L381.415 560.14C380.393 560.14 379.411 559.666 378.684 558.82C377.956 557.974 377.541 556.825 377.528 555.621V357.356C377.541 356.163 377.949 355.022 378.666 354.177C379.384 353.333 380.353 352.852 381.367 352.837H567.572C568.586 352.852 569.555 353.333 570.272 354.177C570.99 355.022 571.398 356.163 571.411 357.356V357.356Z" fill="#65617D"/>
<path id="Vector_18" d="M389.909 365.125H562.412V534.73L389.909 539.307V365.125Z" fill="#EBEAFF"/>
</g>
<path id="head" d="M477.54 399.824C505.091 399.824 527.425 373.532 527.425 341.099C527.425 308.667 505.091 282.375 477.54 282.375C449.99 282.375 427.656 308.667 427.656 341.099C427.656 373.532 449.99 399.824 477.54 399.824Z" fill="#FBBEBE"/>
<path id="neck" d="M527.435 431.491C527.435 431.491 430.736 445.22 439.969 431.491C443.312 426.526 444.235 411.813 444.051 395.053C443.992 389.962 443.837 384.688 443.613 379.437C442.544 354.268 439.969 329.67 439.969 329.67C439.969 329.67 524.519 282.764 514.801 319.946C510.914 334.967 512.187 356.064 515.141 375.867C516.006 381.645 517.007 387.308 518.057 392.685C520.618 405.8 523.748 418.753 527.435 431.491V431.491Z" fill="#FBBEBE"/>
<path id="tshirt" d="M495.879 426.835C507.065 424.398 518.912 419.971 529.437 425.073C532.207 426.412 534.753 428.368 537.591 429.489C540.428 430.61 543.538 430.885 546.493 431.674C556.872 434.443 565.288 443.744 570.692 454.555C576.095 465.367 578.894 477.596 581.635 489.701L588.34 519.251C594.171 544.935 600.002 570.837 601.353 597.39C520.172 602.86 438.805 603.406 357.576 599.026C362.863 587.197 368.266 574.647 367.819 561.273C367.372 547.899 360.832 534.708 363.193 521.528C364.7 513.131 369.578 506.209 372.562 498.395C381.066 476.063 374.447 446.009 389.394 429.009C396.119 421.366 405.916 418.472 415.274 418.838C427.209 419.307 439.425 423.689 451.233 425.828C466.355 428.528 480.641 430.13 495.879 426.835Z" fill="#2F742D"/>
<g id="chair">
<path id="Vector_19" opacity="0.1" d="M623.093 554.019L622.996 555.655V555.77L622.831 558.401L621.539 579.577L619.974 605.09L619.527 612.274L618.555 627.651V627.845L514.568 628.989L343.922 631.163V632.124H343.786V631.163V630.842L344.223 614.414L345.059 582.312L345.778 555.095L345.846 552.383C345.888 550.747 346.214 549.138 346.802 547.654C347.391 546.171 348.23 544.844 349.269 543.755C350.308 542.666 351.524 541.838 352.844 541.321C354.163 540.804 355.559 540.609 356.944 540.748C361.532 541.206 367.489 541.766 374.613 542.361L377.528 542.613C418.666 545.977 494.694 550.324 571.411 544.901C573.024 544.798 574.647 544.684 576.27 544.547C588.165 543.666 600.051 542.533 611.82 541.114C613.308 540.931 614.812 541.134 616.226 541.708C617.64 542.283 618.93 543.215 620.004 544.44C621.079 545.665 621.913 547.153 622.447 548.798C622.98 550.443 623.201 552.206 623.093 553.962V554.019Z" fill="black"/>
<path id="Vector_20" d="M343.893 632.124V631.163L514.568 628.978L618.555 627.834H618.847V627.639L619.818 612.263L620.236 605.399L621.83 579.532L623.084 559.053V558.55C623.142 557.606 623.106 556.658 622.977 555.724C622.982 555.686 622.982 555.647 622.977 555.609C622.71 553.679 622.042 551.855 621.033 550.301C619.963 548.686 618.561 547.418 616.959 546.617C615.357 545.816 613.609 545.509 611.878 545.725C600.109 547.143 588.224 548.276 576.328 549.157C574.705 549.294 573.082 549.409 571.469 549.512C494.752 554.877 418.725 550.53 377.586 547.224L374.671 546.972C367.547 546.377 361.59 545.828 357.003 545.359C354.479 545.108 351.966 545.967 349.949 547.769C347.932 549.571 346.553 552.189 346.079 555.118C345.981 555.737 345.923 556.364 345.904 556.994L345.243 582.346L344.34 614.46L343.912 630.888V631.209V632.169L343.893 632.124Z" fill="#3F3D56"/>
<path id="chair_2" opacity="0.1" d="M623.385 562.039L622.19 579.577L620.411 605.719L619.964 612.263L618.992 626.918L618.934 627.651V627.845L618.788 629.538L618.895 627.845H618.613L514.626 628.989L343.922 631.163V630.842L344.398 614.414L345.37 582.312L345.992 560.975C346.022 559.761 346.31 558.576 346.83 557.527C347.349 556.478 348.083 555.598 348.966 554.969C350.066 554.175 351.353 553.814 352.639 553.939C354.68 554.134 357.187 554.362 360.113 554.614C364.865 555.026 370.725 555.507 377.547 556.01C390.181 556.948 406.032 557.955 424.196 558.779C474.732 561.067 542.955 561.833 607.758 555.152C610.673 554.854 613.686 554.523 616.631 554.191C617.796 554.054 618.971 554.316 620.013 554.946C620.308 555.119 620.588 555.326 620.848 555.564C621.694 556.285 622.365 557.256 622.792 558.378C622.891 558.601 622.973 558.835 623.035 559.076C623.327 560.024 623.446 561.033 623.385 562.039V562.039Z" fill="black"/>
</g>
<g id="monitorleg">
<path id="Vector_21" opacity="0.1" d="M709.646 553.321V560.655L663.804 559.213V553.321H709.646Z" fill="black"/>
<path id="Vector_22" opacity="0.1" d="M293.707 577.701V581.351C293.707 582.678 293.388 583.978 292.786 585.1C292.184 586.222 291.323 587.119 290.305 587.689L251.334 588.57C250.298 588.011 249.42 587.113 248.805 585.983C248.19 584.853 247.863 583.539 247.865 582.197V578.765L293.707 577.701Z" fill="black"/>
<path id="Vector_23" d="M294.183 589.84L243.404 590.984V581.065L294.183 579.921V589.84Z" fill="#3F3D56"/>
<path id="Vector_24" opacity="0.1" d="M294.183 589.84L243.404 590.984V581.065L294.183 579.921V589.84Z" fill="black"/>
<path id="Vector_25" d="M296.126 589.84L245.348 590.984V581.065L296.126 579.921V589.84Z" fill="#3F3D56"/>
<path id="Vector_26" opacity="0.1" d="M664.096 579.989V583.639C664.095 584.966 664.414 586.266 665.016 587.388C665.619 588.51 666.479 589.407 667.497 589.977L706.468 590.858C707.504 590.299 708.382 589.401 708.997 588.271C709.612 587.141 709.939 585.827 709.937 584.485V581.053L664.096 579.989Z" fill="black"/>
<path id="Vector_27" opacity="0.1" d="M663.61 592.128L714.388 593.272V583.353L663.61 582.209V592.128Z" fill="black"/>
<path id="Vector_28" d="M661.666 592.128L712.445 593.272V583.353L661.666 582.209V592.128Z" fill="#3F3D56"/>
</g>
<path id="hair" d="M445.985 359.095C446.062 367.104 442.914 374.655 440.241 382.057C430.51 409.02 426.296 438.297 427.938 467.529C428.647 480.113 430.445 492.698 428.647 505.168C426.849 517.638 420.454 530.074 410.182 533.655C427.218 545.61 450.28 544.352 466.316 530.612C474.858 523.29 481.224 513.074 487.453 503.029C486.713 521.073 482.275 538.638 474.518 554.225C488.54 552.764 502.145 547.851 514.451 539.807C526.758 531.762 537.492 520.764 545.958 507.525C550.147 500.878 553.791 493.579 555.404 485.525C558.407 470.652 554.219 455.196 551.022 440.335C548.35 427.911 546.347 415.302 545.025 402.581C544.607 398.508 544.267 394.321 545.122 390.34C546.094 385.683 548.689 381.748 550.604 377.503C556.046 365.445 556.172 350.847 553.383 337.599C550.594 324.351 545.132 312.132 539.719 300.062C535.385 290.384 530.681 280.259 522.751 274.573C517.794 271.026 512.06 269.55 506.346 268.12L481.69 261.908C476.296 260.547 470.747 259.185 465.295 260.181C456.092 261.874 449.61 269.699 443.915 277.73C439.454 283.977 428.55 295.703 427.782 303.883C427.082 311.423 432.738 324.053 433.701 332.004C434.964 342.301 435.858 338.869 440.795 345.184C443.915 349.096 445.926 353.615 445.985 359.095Z" fill="#3D030D"/>
<g id="lines">
<path id="line1" d="M357.282 397.144H260.486C260.357 397.144 260.233 397.084 260.142 396.976C260.051 396.869 260 396.724 260 396.572C260 396.42 260.051 396.275 260.142 396.168C260.233 396.06 260.357 396 260.486 396H357.282C357.41 396 357.534 396.06 357.625 396.168C357.716 396.275 357.767 396.42 357.767 396.572C357.767 396.724 357.716 396.869 357.625 396.976C357.534 397.084 357.41 397.144 357.282 397.144Z" fill="#0E0E13"/>
<path id="line2" d="M357.282 407.441H260.486C260.357 407.441 260.233 407.38 260.142 407.273C260.051 407.166 260 407.02 260 406.869C260 406.717 260.051 406.571 260.142 406.464C260.233 406.357 260.357 406.296 260.486 406.296H357.282C357.41 406.296 357.534 406.357 357.625 406.464C357.716 406.571 357.767 406.717 357.767 406.869C357.767 407.02 357.716 407.166 357.625 407.273C357.534 407.38 357.41 407.441 357.282 407.441Z" fill="#0E0E13"/>
<path id="line3" d="M357.282 417.737H260.486C260.357 417.737 260.233 417.677 260.142 417.569C260.051 417.462 260 417.317 260 417.165C260 417.013 260.051 416.868 260.142 416.76C260.233 416.653 260.357 416.593 260.486 416.593H357.282C357.41 416.593 357.534 416.653 357.625 416.76C357.716 416.868 357.767 417.013 357.767 417.165C357.767 417.317 357.716 417.462 357.625 417.569C357.534 417.677 357.41 417.737 357.282 417.737Z" fill="#0E0E13"/>
</g>
<path id="&#60;...&#62;" d="M626.503 444.128L643.48 452.361V448.449L631.067 442.798V442.594L643.48 436.93V433.031L626.503 441.264V444.128ZM651.273 453.243C652.666 453.243 653.829 452.105 653.829 450.686C653.829 449.293 652.666 448.142 651.273 448.142C649.866 448.142 648.716 449.293 648.716 450.686C648.716 452.105 649.866 453.243 651.273 453.243ZM660.676 453.243C662.069 453.243 663.233 452.105 663.233 450.686C663.233 449.293 662.069 448.142 660.676 448.142C659.27 448.142 658.119 449.293 658.119 450.686C658.119 452.105 659.27 453.243 660.676 453.243ZM670.079 453.243C671.473 453.243 672.636 452.105 672.636 450.686C672.636 449.293 671.473 448.142 670.079 448.142C668.673 448.142 667.522 449.293 667.522 450.686C667.522 452.105 668.673 453.243 670.079 453.243ZM694.875 444.128V441.264L677.897 433.031V436.93L690.298 442.581V442.811L677.897 448.449V452.361L694.875 444.128Z" fill="#0E0E13"/>
<g id="girl 1" clip-path="url(#clip1)">
<path id="Vector_29" d="M230.615 397.479C230.615 399.101 229.668 400.417 228.5 400.417C227.332 400.417 226.385 399.101 226.385 397.479C226.385 395.858 227.332 394.542 228.5 394.542C229.668 394.542 230.615 395.858 230.615 397.479ZM217.5 394.542C216.332 394.542 215.385 395.858 215.385 397.479C215.385 399.101 216.332 400.417 217.5 400.417C218.668 400.417 219.615 399.101 219.615 397.479C219.615 395.858 218.668 394.542 217.5 394.542ZM223 410.902C226.782 410.902 228.077 406.292 228.077 406.292H217.923C217.923 406.292 219.356 410.902 223 410.902ZM245 418.028C240.51 421.385 235.831 420.484 233.421 415.114C230.592 418.061 227.15 419.984 223 419.984C218.718 419.984 215.356 418.202 212.535 415.196C210.113 420.488 205.464 421.365 201 418.028C208.404 414.601 196.382 394.894 207.945 380.085C211.807 375.14 217.206 373 223 373C228.794 373 234.193 375.14 238.055 380.085C249.618 394.894 237.596 414.601 245 418.028ZM235.408 406.061C235.614 405.665 235.936 405.367 236.313 405.218C240.454 403.597 240.636 396.678 238.943 395.403C238.546 395.106 238.045 395.178 237.806 395.3C236.682 395.877 235.427 394.92 235.427 393.51C235.427 392.587 235.369 391.549 235.264 390.625H218.17C216.794 388.626 216.865 384.858 217.5 381.675C215.972 383.598 214.635 388.038 214.327 390.625H210.738C210.633 391.549 210.575 392.587 210.575 393.51C210.575 394.92 209.319 395.877 208.196 395.3C207.957 395.178 207.458 395.104 207.058 395.403C205.366 396.678 205.547 403.597 209.688 405.218C210.067 405.367 210.387 405.665 210.594 406.061C213.486 411.601 217.388 416.07 223.002 416.07C228.613 416.07 232.518 411.599 235.408 406.061Z" fill="url(#paint1_linear)"/>
</g>
</g>
<defs>
<filter id="filter0_d" x="0" y="0" width="1020" height="642" filterUnits="userSpaceOnUse" color-interpolation-filters="sRGB">
<feFlood flood-opacity="0" result="BackgroundImageFix"/>
<feColorMatrix in="SourceAlpha" type="matrix" values="0 0 0 0 0 0 0 0 0 0 0 0 0 0 0 0 0 0 127 0"/>
<feOffset dy="4"/>
<feGaussianBlur stdDeviation="2"/>
<feColorMatrix type="matrix" values="0 0 0 0 0 0 0 0 0 0 0 0 0 0 0 0 0 0 0.25 0"/>
<feBlend mode="normal" in2="BackgroundImageFix" result="effect1_dropShadow"/>
<feBlend mode="normal" in="SourceGraphic" in2="effect1_dropShadow" result="shape"/>
</filter>
<linearGradient id="paint0_linear" x1="538.131" y1="125" x2="538.131" y2="791.764" gradientUnits="userSpaceOnUse">
<stop stop-color="#C5EAFF"/>
<stop offset="1" stop-color="#570558"/>
</linearGradient>
<linearGradient id="paint1_linear" x1="223" y1="373" x2="223" y2="420" gradientUnits="userSpaceOnUse">
<stop offset="0.046875" stop-color="#CB05B7"/>
<stop offset="0.9999" stop-color="#4E0446"/>
<stop offset="1" stop-color="#4E0446" stop-opacity="0"/>
</linearGradient>
<clipPath id="clip0">
<rect width="1012" height="634" fill="white" transform="translate(4)"/>
</clipPath>
<clipPath id="clip1">
<rect width="44" height="47" fill="white" transform="translate(201 373)"/>
</clipPath>
</defs>
</svg>
